{"title":"Irandaam Ulagam (2013) Tamil Movie DVDScr XviD - Exclusive","uid":9241793,"size":743112704,"categoryP":"video","categoryS":"movies","magnet":"?xt=urn:btih:885744caa3e7a0c6fab2efe8f96af42f50c6ab2a&amp;dn=Irandaam+Ulagam+%282013%29+Tamil+Movie+DVDScr+XviD+-+Exclusive&amp;tr=udp%3A%2F%2Ftracker.openbittorrent.com%3A80&amp;tr=udp%3A%2F%2Fopen.demonii.com%3A1337&amp;tr=udp%3A%2F%2Ftracker.coppersurfer.tk%3A6969&amp;tr=udp%3A%2F%2Fexodus.desync.com%3A6969","seeders":1,"leechers":0,"uploader":"tykoon123","files":-1,"time":1385288457,"description":" &lt;a href=&quot;http://megaimg.com/images/26839332154362702011.jpg&quot; rel=&quot;nofollow&quot; target=&quot;_NEW&quot;&gt;http://megaimg.com/images/26839332154362702011.jpg&lt;/a&gt;\n\nInfo:\nFormat : AVI\nFormat/Info : Audio Video Interleave\nFile size : 698 MiB\nDuration : 2h 27mn\nOverall bit rate mode : Variable\nOverall bit rate : 662 Kbps\nWriting application : VirtualDubMod 1.5.4.1 (build 2178/release)\nWriting library : VirtualDubMod build 2178/release\n\nVideo\nID : 0\nFormat : MPEG-4 Visual\nFormat profile : Advanced Simple@L5\nFormat settings, BVOP : 1\nFormat settings, QPel : No\nFormat settings, GMC : No warppoints\nFormat settings, Matrix : Custom\nCodec ID : XVID\nCodec ID/Hint : XviD\nDuration : 2h 27mn\nBit rate : 534 Kbps\nWidth : 448 pixels\nHeight : 224 pixels\nDisplay aspect ratio : 2.000\nFrame rate : 29.970 fps\nColor space : YUV\nChroma subsampling : 4:2:0\nBit depth : 8 bits\nScan type : Progressive\nCompression mode : Lossy\nBits/(Pixel*Frame) : 0.177\nStream size : 563 MiB (81%)\nWriting library : XviD 1.2.1 (UTC 2008-12-04)\n\nAudio\nID : 1\nFormat : MPEG Audio\nFormat version : Version 1\nFormat profile : Layer 3\nMode : Joint stereo\nCodec ID : 55\nCodec ID/Hint : MP3\nDuration : 2h 27mn\nBit rate mode : Variable\nBit rate : 114 Kbps\nNominal bit rate : 128 Kbps\nChannel(s) : 2 channels\nSampling rate : 48.0 KHz\nCompression mode : Lossy\nStream size : 120 MiB (17%)\nAlignment : Aligned on interleaves\nInterleave, duration : 24 ms (0.72 video frame)\nInterleave, preload duration : 528 ms\nWriting library : LAME3.98r\nEncoding settings : -m j -V 4 -q 2 -lowpass 17 --abr 128\n\nScreens: &lt;a href=&quot;\nhttp://megaimg.com/images/33237478471981577454.png&quot; rel=&quot;nofollow&quot; target=&quot;_NEW&quot;&gt;\nhttp://megaimg.com/images/33237478471981577454.png&lt;/a&gt; &lt;a href=&quot;\nhttp://megaimg.com/images/89854623800878738630.png&quot; rel=&quot;nofollow&quot; target=&quot;_NEW&quot;&gt;\nhttp://megaimg.com/images/89854623800878738630.png&lt;/a&gt; &lt;a href=&quot;\nhttp://megaimg.com/images/21674497983640445407.png&quot; rel=&quot;nofollow&quot; target=&quot;_NEW&quot;&gt;\nhttp://megaimg.com/images/21674497983640445407.png&lt;/a&gt; &lt;a href=&quot;\nhttp://megaimg.com/images/91961098127683224757.png&quot; rel=&quot;nofollow&quot; target=&quot;_NEW&quot;&gt;\nhttp://megaimg.com/images/91961098127683224757.png&lt;/a&gt; &lt;a href=&quot;\nhttp://megaimg.com/images/70831733185508453785.png&quot; rel=&quot;nofollow&quot; target=&quot;_NEW&quot;&gt;\nhttp://megaimg.com/images/70831733185508453785.png&lt;/a&gt;\n\n\n\n\n","torrent":{"xt":"urn:btih:885744caa3e7a0c6fab2efe8f96af42f50c6ab2a","amp;dn":"Irandaam+Ulagam+%282013%29+Tamil+Movie+DVDScr+XviD+-+Exclusive","amp;tr":["udp%3A%2F%2Ftracker.openbittorrent.com%3A80","udp%3A%2F%2Fopen.demonii.com%3A1337","udp%3A%2F%2Ftracker.coppersurfer.tk%3A6969","udp%3A%2F%2Fexodus.desync.com%3A6969"],"infoHash":"885744caa3e7a0c6fab2efe8f96af42f50c6ab2a","infoHashBuffer":{"type":"Buffer","data":[136,87,68,202,163,231,160,198,250,178,239,232,249,106,244,47,80,198,171,42]},"announce":[],"urlList":[]}}